<svg viewBox="0 0 50 50" xmlns="http://www.w3.org/2000/svg"><g data-name="레이어 2"><g data-name="레이어 1"><path d="M35.1 0H14.9A14.91 14.91 0 0 0 0 14.9v20.2A14.91 14.91 0 0 0 14.9 50h20.2A14.91 14.91 0 0 0 50 35.1V14.9A14.91 14.91 0 0 0 35.1 0ZM45 35.1a9.87 9.87 0 0 1-9.9 9.9H14.9A9.87 9.87 0 0 1 5 35.1V14.9A9.87 9.87 0 0 1 14.9 5h20.2a9.87 9.87 0 0 1 9.9 9.9v20.2Z" fill="#e6e6e6" class="fill-000000"></path><path d="M25 12.07A12.93 12.93 0 1 0 37.93 25 12.95 12.95 0 0 0 25 12.07Zm0 20.83a7.9 7.9 0 1 1 7.9-7.9 7.9 7.9 0 0 1-7.9 7.9Z" fill="#e6e6e6" class="fill-000000"></path><circle cx="37.96" cy="12.17" r="3.1" fill="#e6e6e6" class="fill-000000"></circle></g></g></svg>