<svg viewBox="0 0 50 50" xmlns="http://www.w3.org/2000/svg"><g data-name="레이어 2"><path d="M45.48 0h-41A4.52 4.52 0 0 0 0 4.52v41A4.52 4.52 0 0 0 4.52 50h41A4.52 4.52 0 0 0 50 45.48v-41A4.52 4.52 0 0 0 45.48 0Zm-30 43.17a1.32 1.32 0 0 1-1.32 1.32H8.55a1.32 1.32 0 0 1-1.32-1.32V19.69a1.32 1.32 0 0 1 1.32-1.32h5.6a1.32 1.32 0 0 1 1.32 1.32Zm-4.12-27a5.32 5.32 0 1 1 5.32-5.32 5.32 5.32 0 0 1-5.33 5.31Zm33.4 27.12a1.21 1.21 0 0 1-1.21 1.21h-6a1.21 1.21 0 0 1-1.21-1.21v-11c0-1.64.48-7.2-4.29-7.2-3.71 0-4.46 3.8-4.61 5.51v12.68a1.21 1.21 0 0 1-1.21 1.21h-5.84a1.21 1.21 0 0 1-1.21-1.21v-23.7a1.21 1.21 0 0 1 1.21-1.21h5.81a1.21 1.21 0 0 1 1.21 1.21v2c1.38-2.01 3.42-3.58 7.77-3.58 9.63 0 9.57 9 9.57 13.94v11.34Z" data-name="레이어 1" fill="#e6e6e6" class="fill-000000"></path></g></svg>