<svg viewBox="0 0 512 512" xml:space="preserve" xmlns="http://www.w3.org/2000/svg"><path d="M510.689 478.854c0 17.562-14.275 31.837-31.837 31.837H33.146c-17.561 0-31.836-14.275-31.836-31.837V33.146c0-17.56 14.275-31.836 31.836-31.836h445.706c17.562 0 31.837 14.276 31.837 31.836v445.708z" fill="#e6e6e6" class="fill-ebf7f9"></path><path d="M110.664 130.22h290.869c15.32 0 27.82 12.5 27.82 27.817v195.93c0 15.324-12.5 27.813-27.82 27.813H110.664c-15.522 0-28.018-12.488-28.018-27.813v-195.93c0-15.317 12.496-27.817 28.018-27.817z" fill="#e6e6e6" class="fill-eceadf"></path><path d="m256.002 289.861 136.461-96.348v188.266h9.07c15.32 0 27.82-12.488 27.82-27.813V158.037c0-12.902-8.875-23.785-20.974-27.014L256.002 238.664 103.81 131.023c-12.099 3.022-21.162 14.11-21.162 27.014v195.93c0 15.324 12.494 27.813 28.018 27.813h8.867V193.515l136.469 96.346z" fill="#080808" class="fill-e63734"></path><path fill="#e6e6e6" d="m392.463 193.515-136.461 96.346 136.254 91.918h.207zM119.531 381.779l136.471-91.918c-54.631 32.055-85.875 52.41-136.471 91.918z" class="fill-aeaea5"></path><path d="M392.463 193.515V381.78h9.07c15.32 0 27.82-12.488 27.82-27.813V167.511l-36.89 26.004z" fill="#080808" class="fill-a62323"></path></svg>